<?xml version="1.0" encoding="UTF-8" standalone="no"?>
<!-- Created with Inkscape (http://www.inkscape.org/) -->

<svg
   xmlns:dc="http://purl.org/dc/elements/1.1/"
   xmlns:cc="http://creativecommons.org/ns#"
   xmlns:rdf="http://www.w3.org/1999/02/22-rdf-syntax-ns#"
   xmlns:svg="http://www.w3.org/2000/svg"
   xmlns="http://www.w3.org/2000/svg"
   xmlns:sodipodi="http://sodipodi.sourceforge.net/DTD/sodipodi-0.dtd"
   xmlns:inkscape="http://www.inkscape.org/namespaces/inkscape"
   width="50.035381mm"
   height="34.531548mm"
   viewBox="0 0 50.035382 34.531548"
   version="1.1"
   id="svg4064"
   inkscape:version="0.92.4 (5da689c313, 2019-01-14)"
   sodipodi:docname="XFM_logo.svg">
  <defs
     id="defs4058" />
  <sodipodi:namedview
     id="base"
     pagecolor="#ffffff"
     bordercolor="#666666"
     borderopacity="1.0"
     inkscape:pageopacity="0.0"
     inkscape:pageshadow="2"
     inkscape:zoom="1.4"
     inkscape:cx="79.259145"
     inkscape:cy="-10.442352"
     inkscape:document-units="mm"
     inkscape:current-layer="layer1"
     showgrid="false"
     inkscape:window-width="1920"
     inkscape:window-height="1017"
     inkscape:window-x="-8"
     inkscape:window-y="-8"
     inkscape:window-maximized="1"
     fit-margin-top="0"
     fit-margin-left="0"
     fit-margin-right="0"
     fit-margin-bottom="0" />
  <metadata
     id="metadata4061">
    <rdf:RDF>
      <cc:Work
         rdf:about="">
        <dc:format>image/svg+xml</dc:format>
        <dc:type
           rdf:resource="http://purl.org/dc/dcmitype/StillImage" />
        <dc:title></dc:title>
      </cc:Work>
    </rdf:RDF>
  </metadata>
  <g
     inkscape:label="Layer 1"
     inkscape:groupmode="layer"
     id="layer1"
     transform="translate(-88.693648,-53.937554)">
    <g
       inkscape:export-ydpi="96"
       inkscape:export-xdpi="96"
       style="display:inline;fill:#ff6060;fill-opacity:1"
       transform="matrix(0.28222223,0,0,0.28222223,-49.007322,-8.044592)"
       id="g6029">
      <path
         style="display:inline;opacity:1;fill:#ff6060;fill-opacity:1;fill-rule:evenodd;stroke:none;stroke-width:33.99921799;stroke-linecap:round;stroke-linejoin:miter;stroke-miterlimit:4;stroke-dasharray:none;stroke-dashoffset:0;stroke-opacity:1"
         d="m 541.77477,281.45154 c -17.97755,-17.9212 -35.85778,-35.9404 -53.85296,-53.84379 0,6.85507 -0.005,14.81627 -0.005,23.0154 l 30.8815,30.88152 -30.8815,30.88481 c 0.0166,7.92894 0.005,19.48906 0.005,22.9055 17.9621,-17.93635 35.90416,-35.89352 53.85296,-53.84344 z"
         id="path6021"
         inkscape:connector-curvature="0"
         sodipodi:nodetypes="cccccccc" />
      <path
         inkscape:connector-curvature="0"
         style="display:inline;opacity:1;fill:#ff6060;fill-opacity:1;fill-rule:evenodd;stroke:none;stroke-width:64.91603088;stroke-linecap:round;stroke-linejoin:miter;stroke-miterlimit:4;stroke-dasharray:none;stroke-dashoffset:0;stroke-opacity:1"
         d="m 651.45117,242.12109 -58.10547,58.10352 58.10547,58.10547 58.10352,-58.10547 z m -1.53711,42.16016 h 0.0391 l 14.32032,20.35937 14.56054,-20.35937 h 0.0801 v 29.95898 h -4.16015 v -17.95898 l -10.48047,14.83984 h -0.0801 l -10.24024,-14.20117 v 17.32031 h -4.03906 z m -23.67187,0.95898 h 17.35937 v 4.04102 h -13.19922 v 8.79883 h 11.51954 v 4 h -11.51954 v 12.16015 h -4.16015 z"
         id="path6023"
         transform="scale(0.9375)" />
      <path
         style="opacity:1;fill:#ff6060;fill-opacity:1;fill-rule:evenodd;stroke:none;stroke-width:33.99921417;stroke-linecap:round;stroke-linejoin:miter;stroke-miterlimit:4;stroke-dasharray:none;stroke-dashoffset:0;stroke-opacity:1"
         d="m 548.78163,273.47973 c 17.9212,-17.97755 35.9404,-35.85778 53.84379,-53.85296 -6.85508,0 -14.81627,-0.005 -23.0154,-0.005 l -30.88152,30.8815 -30.88481,-30.8815 c -7.92894,0.0166 -19.48906,0.005 -22.9055,0.005 17.93635,17.9621 35.89352,35.90416 53.84344,53.85296 z"
         id="path6025"
         inkscape:connector-curvature="0"
         sodipodi:nodetypes="cccccccc" />
      <path
         style="display:inline;opacity:1;fill:#ff6060;fill-opacity:1;fill-rule:evenodd;stroke:none;stroke-width:33.99921799;stroke-linecap:round;stroke-linejoin:miter;stroke-miterlimit:4;stroke-dasharray:none;stroke-dashoffset:0;stroke-opacity:1"
         d="m 548.79433,288.11968 c 17.9212,17.97755 35.9404,35.85778 53.84379,53.85296 -6.85507,0 -14.81627,0.005 -23.0154,0.005 l -30.88152,-30.8815 -30.88481,30.8815 c -7.92894,-0.0166 -19.48906,-0.005 -22.9055,-0.005 17.93635,-17.9621 35.89352,-35.90416 53.84344,-53.85296 z"
         id="path6027"
         inkscape:connector-curvature="0"
         sodipodi:nodetypes="cccccccc" />
    </g>
  </g>
</svg>
